<svg version="1.1" id="Layer_1" xmlns="http://www.w3.org/2000/svg" xmlns:xlink="http://www.w3.org/1999/xlink" x="0px" y="0px" viewBox="0 0 480 480" style="enable-background:new 0 0 480 480;" xml:space="preserve">
<style type="text/css">
	.st0{fill:#42A5F5;}
	.st1{fill:#1E88E5;}
</style>
<path class="st0" d="M448,352.3c-11.1,23.9-16.4,34.6-30.5,55.7c-19.8,29.5-47.9,66.4-82.5,66.6c-30.8,0.2-38.7-19.7-80.6-19.3
	c-41.8,0.2-50.5,19.7-81.3,19.4c-34.6-0.3-61.1-33.5-81-62.9C36.5,329.1,30.7,232.2,65,180.7c24.3-36.6,62.7-58,98.8-58
	c36.7,0,59.8,19.7,90.2,19.7c29.5,0,47.4-19.8,89.9-19.8c32.1,0,66.1,17.1,90.4,46.6C354.8,211.8,367.7,322.7,448,352.3z" id="id_106" style="fill: rgb(255, 255, 255);"></path>
<path class="st0" d="M317.1,84.4c16.6-20.6,29.1-49.6,24.5-79.2c-27,1.8-58.6,18.5-77,40.1C247.9,65,234,94.3,239.4,122.6
	C268.9,123.5,299.4,106.5,317.1,84.4z" id="id_107" style="fill: rgb(255, 255, 255);"></path>
<path class="st1" d="M404.3,193.3c-113.9,124.9-218.3,7.6-358.8,96.8c4.9,39.5,20,82.2,46.5,121.7c19.8,29.5,46.4,62.7,81,62.9
	c30.8,0.3,39.6-19.2,81.3-19.4c41.8-0.3,49.7,19.6,80.6,19.3c34.6-0.3,62.7-37.1,82.5-66.6c14.2-21.1,19.5-31.8,30.5-55.7
	C380.1,327.2,360.7,244.1,404.3,193.3z" id="id_108" style="fill: rgb(255, 255, 255);"></path>
</svg>